<?xml version="1.0" ?><!DOCTYPE svg  PUBLIC '-//W3C//DTD SVG 1.1//EN'  'http://www.w3.org/Graphics/SVG/1.1/DTD/svg11.dtd'><svg height="60px" id="Layer_1" style="enable-background:new 0 0 60 60;" version="1.1" viewBox="0 0 60 60" width="60px" xml:space="preserve" xmlns="http://www.w3.org/2000/svg" xmlns:xlink="http://www.w3.org/1999/xlink"><style type="text/css">
	.st0{fill-rule:evenodd;clip-rule:evenodd;fill:#FFFFFF;}
	.st1{fill:#0A94E3;}
	.st2{fill:#C2E4F8;}
	.st3{fill:#FFFFFF;}
	.st4{fill-rule:evenodd;clip-rule:evenodd;fill:#C2E4F8;}
	.st5{fill:#FFCC00;}
	.st6{fill:#C1C9CC;}
	.st7{fill:#36D7B7;}
	.st8{fill:#DAE3E6;}
	.st9{fill:#AA8566;}
	.st10{fill:#E45544;}
	.st11{fill:none;stroke:#0A94E3;stroke-width:2;stroke-linecap:round;stroke-linejoin:round;stroke-miterlimit:10;}
	.st12{fill:#76D03B;}
	.st13{fill:#32B324;}
</style><path class="st3" d="M38.0400009,31.6087322c-0.3700027,5.0699978-3.5699997,12.8500004-0.7099991,13.4499989  c2.8699989,0.6000023,1.7099991,3.1199989,0.1499977,3.4900017c-1.3400002,0.329998-3.0499992,0.4499969-4.5400009,0  c-1.9699993-0.5800018-3.2199993-2.5200005-3.2199993-4.170002c0-1.6599998-1.4699993-6.75-2.1499996-8.5699997  c-4.6100006,3.2799988-10.7700005,2.7099991-11.539999,3.4599991c-1.8800011,1.8400002-3.8300009,4.0500031-2.3400011,5.5400009  c3.6600008,0,3.7799997,3.0499992,1.8300009,3.6500015c-2.6500006,0.8199997-7.2200003,0-7.2200003,0  s-4.3699999-7.2000008-3.0700002-8.5c1.29-1.2999992,1.3699999-4.0300026,0.4499998-7.6900024  c-0.2199998-0.8699989-0.27-0.579998-0.3099999-1.3799992c-0.8199997,0.5600014-2.03,0.7299995-2.27-0.3299999  c-0.5899999-2.5299988,1.46-8.5599995,4.7400002-10.1499996c0.9700003-1.0900002,2.1499996-1.9400005,3.3999996-2.5300007  c5.5100002-2.5899992,12.8600006-2.1499996,14.1599998-2.829999c1.6800003-0.9000006,2.8700008-1.5100002,4.0300007-1.6800003  C32.4799995,12.9087315,34,15.348731,34,15.348731c2.5900002,0.6500006,8.5600014,0.920001,8.5600014,0.920001  s0.4199982-2.6200008,3.0099983-2.4800005c2.1899986,0.1300001,2.2400017,2.79,2.2400017,2.79S51.1599998,17.5687313,52,18.0287323  c0.8300018,0.4499989,1.7000008,1.7199993,1.7000008,1.7199993s2.9699974,0.9099998,3.2000008,1.6000004  c0.2299995,0.6800003,0.2599983,4.2299995-1.9400024,4.8299999C51.2799988,27.2087307,43.2200012,30.4487324,38.0400009,31.6087322z  "/><path class="st2" d="M48.2150002,28.4337311c-3.4500008,1.2000008-7.2799988,2.5200005-10.2000008,3.1700001  c0.2299995-2.2600002-0.0099983-3.0200005-0.7299995-4.8500004C37.5550003,26.8437309,41.4150009,28.1337318,48.2150002,28.4337311z  "/><path class="st2" d="M25.9950008,32.0037308l1.5499992,3.7999992c-4.6100006,3.2800026-10.7700005,2.7200012-11.5400009,3.4600029  c5.3500004-4.4799995,3.7400017-10.3400021,3.7400017-10.3400021L25.9950008,32.0037308z"/><path class="st1" d="M49.4697266,21.859375c-0.1171875,0-0.2373047-0.0209961-0.3535156-0.0649414  c-0.3740234-0.1411133-0.9267578-0.1972656-1.1083984-0.2070312c-0.5507812-0.0292969-0.9746094-0.4990234-0.9462891-1.050293  c0.0292969-0.550293,0.5068359-0.9741211,1.0478516-0.9467773c0.0976562,0.0048828,0.9785156,0.0556641,1.7138672,0.3330078  c0.5166016,0.1948242,0.7773438,0.7719727,0.5820312,1.2885742C50.2539062,21.6123047,49.8740234,21.859375,49.4697266,21.859375z"/><path class="st1" d="M35.1035156,49.8417969c-0.875,0-1.7128906-0.1123047-2.4521484-0.3359375  c-2.5517578-0.7509766-3.9316406-3.2021484-3.9316406-5.1269531c0-1.1992188-0.9560547-4.7861328-1.6835938-7.0449219  C23.9853516,39.0761719,20.5625,39.5,18.421875,39.7646484c-0.6669922,0.0820312-1.4892578,0.1845703-1.7578125,0.2822266  c-0.7412109,0.7265625-2.4951172,2.4746094-2.5009766,3.5322266c-0.0009766,0.0742188,0.0068359,0.15625,0.0429688,0.2480469  c2.3310547,0.1708984,3.3652344,1.4980469,3.5380859,2.6445312c0.1953125,1.3007812-0.6162109,2.5380859-1.9306641,2.9433594  c-2.8457031,0.8798828-7.4921875,0.0634766-7.6904297,0.0283203c-0.2822266-0.0507812-0.5292969-0.2207031-0.6777344-0.4658203  c-2.1796875-3.5908203-4.4560547-8.1933594-2.921875-9.7255859c0.9658203-0.9746094,1.0332031-3.3691406,0.1865234-6.7392578  c-0.0244141-0.0957031-0.0458984-0.1738281-0.0654297-0.2402344c-0.4433594,0.0947266-0.9160156,0.0888672-1.3535156-0.0830078  c-0.5996094-0.2353516-1.0136719-0.7363281-1.1669922-1.4101562c-0.6757812-2.8974609,1.4267578-9.2285156,5.0986328-11.1782227  c0.9951172-1.0800781,2.2333984-1.9858398,3.5908203-2.6264648c3.7910156-1.7822266,8.3496094-2.1855469,11.3662109-2.4521484  c1.1523438-0.1020508,2.4589844-0.2172852,2.7597656-0.3613281c1.7734375-0.949707,3.0410156-1.5908203,4.3457031-1.7817383  c2.9101562-0.440918,4.6689453,1.2944336,5.2998047,2.0786133c2.0195312,0.4326172,5.6523438,0.6787109,7.2412109,0.7700195  c0.4824219-1.1811523,1.640625-2.5576172,3.7978516-2.4379883c2.0292969,0.1206055,2.859375,1.7543945,3.1035156,3.0205078  c1.0810547,0.3305664,3.0507812,0.956543,3.7529297,1.3413086c0.7646484,0.4140625,1.4853516,1.2802734,1.8339844,1.7412109  c3.1591797,1.0146484,3.4306641,1.8266602,3.5341797,2.1386719c0.2490234,0.7373047,0.2851562,2.8286133-0.53125,4.3613281  c-0.4814453,0.902832-1.2050781,1.5078125-2.0947266,1.7504883c-1.3837891,0.3876953-3.5009766,1.1298828-5.7421875,1.9155273  c-3.4755859,1.21875-7.3818359,2.5883789-10.5126953,3.3579102c-0.1796875,1.5751953-0.5615234,3.3134766-0.9326172,5.0009766  c-0.5546875,2.5253906-1.2451172,5.6689453-0.6806641,6.5419922c0.0419922,0.0644531,0.0800781,0.0986328,0.1806641,0.1201172  c2.3427734,0.4902344,2.5458984,2.0615234,2.5517578,2.5322266c0.0175781,1.2890625-1.0478516,2.5947266-2.3759766,2.9091797  C36.8466797,49.734375,35.9570312,49.8417969,35.1035156,49.8417969z M27.5703125,34.8085938  c0.0986328,0,0.1972656,0.0146484,0.2929688,0.0439453c0.296875,0.0908203,0.5351562,0.3154297,0.6435547,0.6064453  c0.6757812,1.8095703,2.2128906,7.0566406,2.2128906,8.9199219c0,1.1894531,0.9570312,2.7558594,2.5029297,3.2109375  c1.1337891,0.3417969,2.5976562,0.3369141,4.0185547-0.0117188c0.4648438-0.1103516,0.8505859-0.6083984,0.8457031-0.9394531  c-0.0048828-0.3720703-0.7373047-0.5546875-0.9619141-0.6015625c-0.6113281-0.1279297-1.1132812-0.4707031-1.4492188-0.9912109  c-1.0175781-1.5742188-0.3583984-4.578125,0.40625-8.0566406c0.4140625-1.8867188,0.8427734-3.8388672,0.9609375-5.4541016  c0.0322266-0.4394531,0.3486328-0.8061523,0.7783203-0.902832c3.1210938-0.6982422,7.3056641-2.1660156,10.9980469-3.4604492  c2.3701172-0.831543,4.4179688-1.5493164,5.8710938-1.9560547c0.3457031-0.0942383,0.6162109-0.3266602,0.8339844-0.7119141  c0.5107422-0.90625,0.5126953-2.2583008,0.4492188-2.7241211c-0.359375-0.265625-1.5107422-0.7514648-2.5664062-1.0751953  c-0.2158203-0.065918-0.4033203-0.2041016-0.53125-0.3901367c-0.3076172-0.4462891-0.9296875-1.1777344-1.3525391-1.40625  c-0.546875-0.2998047-2.7412109-0.9995117-3.9970703-1.3706055c-0.4189453-0.1235352-0.7080078-0.5039062-0.7167969-0.9404297  c-0.0048828-0.1723633-0.0878906-1.7382812-1.2988281-1.8105469c-1.5751953-0.0825195-1.9140625,1.3583984-1.9648438,1.6484375  c-0.0888672,0.4951172-0.5654297,0.8549805-1.03125,0.8325195c-0.2480469-0.0112305-6.1015625-0.2822266-8.7578125-0.9492188  c-0.25-0.0625-0.4648438-0.2182617-0.6025391-0.4355469c-0.0566406-0.0883789-1.2539062-1.8764648-3.5751953-1.5253906  c-0.9892578,0.1450195-2.0605469,0.690918-3.7060547,1.5727539c-0.6035156,0.3154297-1.5673828,0.4121094-3.5166016,0.5844727  c-2.8759766,0.2543945-7.2216797,0.6386719-10.6904297,2.269043c-1.1748047,0.5541992-2.2392578,1.3461914-3.0791016,2.2895508  C8.5,21.1713867,8.3945312,21.2514648,8.2763672,21.3085938c-2.7539062,1.3344727-4.7148438,6.8276367-4.203125,9.0229492  c0.0273438,0.0200195,0.3662109-0.0180664,0.7324219-0.2685547c0.2988281-0.2045898,0.6826172-0.230957,1.0087891-0.0703125  c0.3242188,0.1611328,0.5361328,0.484375,0.5546875,0.8461914c0.0166016,0.34375,0.0244141,0.3632812,0.0644531,0.4736328  c0.0498047,0.1376953,0.1181641,0.3261719,0.2158203,0.7109375c1.0419922,4.1474609,0.8212891,7.0341797-0.65625,8.5859375  c-0.1835938,0.7851562,1.1445312,3.9238281,2.9248047,6.9345703c1.1669922,0.171875,4.375,0.5566406,6.3056641-0.0400391  c0.4316406-0.1328125,0.5830078-0.4648438,0.5429688-0.734375c-0.0722656-0.4785156-0.7421875-0.9609375-2.0761719-0.9609375  c-0.265625,0-0.5195312-0.1054688-0.7070312-0.2929688c-0.5410156-0.5410156-0.8242188-1.2138672-0.8203125-1.9472656  c0.0087891-1.6914062,1.5273438-3.4091797,3.1679688-5.0146484c0.4960938-0.4833984,1.3300781-0.5869141,2.8457031-0.7744141  c2.3603516-0.2919922,5.9287109-0.7324219,8.8134766-2.7851562C27.1621094,34.8720703,27.3652344,34.8085938,27.5703125,34.8085938z   M5.9433594,40.6601562c-0.0009766,0.0009766-0.0019531,0.0019531-0.0029297,0.0029297  C5.9414062,40.6621094,5.9423828,40.6611328,5.9433594,40.6601562z M16.6240234,40.0634766L16.6240234,40.0634766  L16.6240234,40.0634766z"/><path class="st1" d="M16.03125,40.2685547c-0.2861328,0-0.5703125-0.1220703-0.7675781-0.3583984  c-0.3544922-0.4228516-0.2988281-1.0537109,0.125-1.4082031c4.8017578-4.0205078,3.4306641-9.2661133,3.4160156-9.3183594  c-0.1455078-0.5327148,0.1679688-1.0830078,0.7001953-1.2290039c0.53125-0.1464844,1.0830078,0.1669922,1.2294922,0.699707  c0.0722656,0.2651367,1.7128906,6.5449219-4.0625,11.3808594C16.4853516,40.1923828,16.2568359,40.2685547,16.03125,40.2685547z"/><path class="st1" d="M27.5703125,36.8085938c-0.3945312,0-0.7685547-0.2353516-0.9257812-0.6230469L25.09375,32.3759766  c-0.2089844-0.5117188,0.0371094-1.0947266,0.5488281-1.3027344c0.5087891-0.2104492,1.0957031,0.0371094,1.3027344,0.5488281  l1.5507812,3.8095703c0.2089844,0.5117188-0.0371094,1.0947266-0.5488281,1.3027344  C27.8242188,36.7851562,27.6962891,36.8085938,27.5703125,36.8085938z"/><path class="st1" d="M38.0410156,32.6083984c-0.0332031,0-0.0673828-0.0019531-0.1015625-0.0048828  c-0.5498047-0.0556641-0.9501953-0.546875-0.8945312-1.0957031c0.2089844-2.0605469,0.0185547-2.652832-0.6738281-4.3886719  c-0.2050781-0.5126953,0.0449219-1.0947266,0.5576172-1.2993164c0.5126953-0.203125,1.0947266,0.043457,1.2998047,0.5581055  c0.7958984,1.9941406,1.0527344,2.9082031,0.8066406,5.3310547C38.9824219,32.2246094,38.5478516,32.6083984,38.0410156,32.6083984z  "/><path class="st1" d="M35.0703125,18.4790039c-0.4296875,0-0.8261719-0.2783203-0.9570312-0.7104492  c-0.2109375-0.6953125-0.6230469-1.4672852-0.8847656-1.7832031c-0.3515625-0.4257812-0.2910156-1.0561523,0.1347656-1.4077148  c0.4267578-0.3510742,1.0566406-0.2910156,1.4082031,0.1342773c0.4697266,0.5688477,0.9863281,1.5874023,1.2558594,2.4765625  c0.1601562,0.5283203-0.1386719,1.0864258-0.6669922,1.2470703C35.2636719,18.4648438,35.1660156,18.4790039,35.0703125,18.4790039z  "/></svg>
